# xmcd CD database file
#
# Track frame offsets:
#        150
#        15688
#        29511
#        49078
#        65350
#
# Disc length: 1071 seconds
#
# Revision: 0
# Processed by: cddbd v1.5.2PL0 Copyright (c) Steve Scherf et al.
# Submitted via: CUERipper 2.1.5
#
DISCID=3b042d05
DTITLE=Tony Martinez - Everybody's Buddy
DYEAR=2015
DGENRE=Country
TTITLE0=Everybody's Buddy
TTITLE1=Does She Miss Me
TTITLE2=Ttry
TTITLE3=Help Me Up (So I Can Get Down)
TTITLE4=Frank's Rag
EXTD=
EXTT0=
EXTT1=
EXTT2=
EXTT3=
EXTT4=
PLAYORDER=
